<?xml version="1.0" encoding="UTF-8" standalone="no"?>
<svg width="600px" height="125px" viewBox="0 0 600 125" version="1.1" xmlns="http://www.w3.org/2000/svg" xmlns:xlink="http://www.w3.org/1999/xlink">
    <!-- Generator: Sketch 3.8.3 (29802) - http://www.bohemiancoding.com/sketch -->
    <title>Artboard 1</title>
    <desc>Created with Sketch.</desc>
    <defs></defs>
    <g id="Page-1" stroke="none" stroke-width="1" fill="none" fill-rule="evenodd">
        <g id="Artboard-1" fill="#A1A8AE">
            <g id="Group-2" transform="translate(207.000000, 0.000000)">
                <polygon id="Fill-1" points="110.176688 111.0295 120.176688 111.0295 120.176688 101.0295 110.176688 101.0295"></polygon>
                <polygon id="Fill-3" points="121.145688 111.0295 131.145688 111.0295 131.145688 101.0295 121.145688 101.0295"></polygon>
                <polygon id="Fill-4" points="132.082688 111.0295 142.082688 111.0295 142.082688 101.0295 132.082688 101.0295"></polygon>
                <polygon id="Fill-5" points="44.3346875 111.0295 54.3346875 111.0295 54.3346875 101.0295 44.3346875 101.0295"></polygon>
                <polygon id="Fill-6" points="55.3346875 111.0295 65.3346875 111.0295 65.3346875 101.0295 55.3346875 101.0295"></polygon>
                <polygon id="Fill-7" points="66.3026875 111.0295 76.3026875 111.0295 76.3026875 101.0295 66.3026875 101.0295"></polygon>
                <polygon id="Fill-8" points="77.2396875 122.0295 87.2396875 122.0295 87.2396875 112.0295 77.2396875 112.0295"></polygon>
                <polygon id="Fill-9" points="66.2716875 122.1515 76.2716875 122.1515 76.2716875 112.1515 66.2716875 112.1515"></polygon>
                <polygon id="Fill-10" points="110.145688 122.1435 120.145688 122.1435 120.145688 112.1435 110.145688 112.1435"></polygon>
                <polygon id="Fill-11" points="99.2086875 122.0215 109.208687 122.0215 109.208687 112.0215 99.2086875 112.0215"></polygon>
                <polygon id="Fill-12" points="131.145688 56.4215 121.145688 56.4215 121.145688 66.4215 131.145688 66.4215"></polygon>
                <polygon id="Fill-13" points="131.145688 67.5435 121.145688 67.5435 121.145688 77.5435 131.145688 77.5435"></polygon>
                <polygon id="Fill-14" points="131.113687 78.7865 121.113687 78.7865 121.113687 88.7865 131.113687 88.7865"></polygon>
                <polygon id="Fill-15" points="131.145688 89.7865 121.145688 89.7865 121.145688 99.7865 131.145688 99.7865"></polygon>
                <polygon id="Fill-16" points="174.987687 89.7865 164.987687 89.7865 164.987687 99.7865 174.987687 99.7865"></polygon>
                <polygon id="Fill-17" points="175.019688 101.0295 165.019688 101.0295 165.019688 111.0295 175.019688 111.0295"></polygon>
                <polygon id="Fill-18" points="175.019688 112.1515 165.019688 112.1515 165.019688 122.1515 175.019688 122.1515"></polygon>
                <polygon id="Fill-19" points="21.4606875 89.7865 11.4606875 89.7865 11.4606875 99.7865 21.4606875 99.7865"></polygon>
                <polygon id="Fill-20" points="21.4606875 101.0295 11.4606875 101.0295 11.4606875 111.0295 21.4606875 111.0295"></polygon>
                <polygon id="Fill-21" points="21.4606875 112.0295 11.4606875 112.0295 11.4606875 122.0295 21.4606875 122.0295"></polygon>
                <polygon id="Fill-22" points="65.3026875 56.5435 55.3026875 56.5435 55.3026875 66.5435 65.3026875 66.5435"></polygon>
                <polygon id="Fill-23" points="65.3026875 67.5435 55.3026875 67.5435 55.3026875 77.5435 65.3026875 77.5435"></polygon>
                <polygon id="Fill-24" points="65.3026875 78.9085 55.3026875 78.9085 55.3026875 88.9085 65.3026875 88.9085"></polygon>
                <polygon id="Fill-25" points="65.3026875 89.9085 55.3026875 89.9085 55.3026875 99.9085 65.3026875 99.9085"></polygon>
                <polygon id="Fill-26" points="109.176688 56.5435 99.1766875 56.5435 99.1766875 66.5435 109.176688 66.5435"></polygon>
                <polygon id="Fill-27" points="109.208687 67.5435 99.2086875 67.5435 99.2086875 77.5435 109.208687 77.5435"></polygon>
                <polygon id="Fill-28" points="109.208687 78.7865 99.2086875 78.7865 99.2086875 88.7865 109.208687 88.7865"></polygon>
                <polygon id="Fill-29" points="109.208687 89.9085 99.2086875 89.9085 99.2086875 99.9085 109.208687 99.9085"></polygon>
                <polygon id="Fill-30" points="109.176688 45.4215 99.1766875 45.4215 99.1766875 55.4215 109.176688 55.4215"></polygon>
                <polygon id="Fill-31" points="87.2716875 45.2995 77.2716875 45.2995 77.2716875 55.2995 87.2716875 55.2995"></polygon>
                <polygon id="Fill-32" points="87.2716875 56.5435 77.2716875 56.5435 77.2716875 66.5435 87.2716875 66.5435"></polygon>
                <polygon id="Fill-33" points="87.2396875 67.5435 77.2396875 67.5435 77.2396875 77.5435 87.2396875 77.5435"></polygon>
                <polygon id="Fill-34" points="87.2396875 78.7865 77.2396875 78.7865 77.2396875 88.7865 87.2396875 88.7865"></polygon>
                <polygon id="Fill-35" points="87.2396875 89.7865 77.2396875 89.7865 77.2396875 99.7865 87.2396875 99.7865"></polygon>
                <polygon id="Fill-36" points="120.176688 34.1775 110.176688 34.1775 110.176688 44.1775 120.176688 44.1775"></polygon>
                <polygon id="Fill-37" points="120.176688 45.2995 110.176688 45.2995 110.176688 55.2995 120.176688 55.2995"></polygon>
                <polygon id="Fill-38" points="76.3026875 34.2995 66.3026875 34.2995 66.3026875 44.2995 76.3026875 44.2995"></polygon>
                <polygon id="Fill-39" points="76.3026875 45.4215 66.3026875 45.4215 66.3026875 55.4215 76.3026875 55.4215"></polygon>
                <polygon id="Fill-40" points="142.113687 23.0565 132.113687 23.0565 132.113687 33.0565 142.113687 33.0565"></polygon>
                <polygon id="Fill-41" points="131.113687 23.0565 121.113687 23.0565 121.113687 33.0565 131.113687 33.0565"></polygon>
                <polygon id="Fill-42" points="65.3346875 23.0565 55.3346875 23.0565 55.3346875 33.0565 65.3346875 33.0565"></polygon>
                <polygon id="Fill-43" points="54.3656875 23.1775 44.3656875 23.1775 44.3656875 33.1775 54.3656875 33.1775"></polygon>
                <polygon id="Fill-44" points="132.113687 22.0565 142.113687 22.0565 142.113687 12.0565 132.113687 12.0565"></polygon>
                <polygon id="Fill-45" points="143.050687 22.0565 153.050687 22.0565 153.050687 12.0565 143.050687 12.0565"></polygon>
                <polygon id="Fill-46" points="154.050687 22.0565 164.050687 22.0565 164.050687 12.0565 154.050687 12.0565"></polygon>
                <polygon id="Fill-47" points="174.987687 11.9345 164.987687 11.9345 164.987687 21.9345 174.987687 21.9345"></polygon>
                <polygon id="Fill-48" points="164.050687 0.8125 154.050687 0.8125 154.050687 10.8125 164.050687 10.8125"></polygon>
                <polygon id="Fill-49" points="11.4606875 22.0565 21.4606875 22.0565 21.4606875 12.0565 11.4606875 12.0565"></polygon>
                <polygon id="Fill-50" points="22.4286875 22.0565 32.4286875 22.0565 32.4286875 12.0565 22.4286875 12.0565"></polygon>
                <polygon id="Fill-51" points="33.5546875 22.0565 43.5546875 22.0565 43.5546875 12.0565 33.5546875 12.0565"></polygon>
                <polygon id="Fill-52" points="54.3656875 11.9345 44.3656875 11.9345 44.3656875 21.9345 54.3656875 21.9345"></polygon>
                <polygon id="Fill-53" points="32.4286875 0.8125 22.4286875 0.8125 22.4286875 10.8125 32.4286875 10.8125"></polygon>
                <polygon id="Fill-54" points="185.987687 23.0565 175.987687 23.0565 175.987687 33.0565 185.987687 33.0565"></polygon>
                <polygon id="Fill-55" points="185.987687 34.0565 175.987687 34.0565 175.987687 44.0565 185.987687 44.0565"></polygon>
                <polygon id="Fill-56" points="10.4916875 23.1775 0.4916875 23.1775 0.4916875 33.1775 10.4916875 33.1775"></polygon>
                <polygon id="Fill-57" points="10.4916875 34.2995 0.4916875 34.2995 0.4916875 44.2995 10.4916875 44.2995"></polygon>
                <polygon id="Fill-58" points="164.050687 45.2995 154.050687 45.2995 154.050687 55.2995 164.050687 55.2995"></polygon>
                <polygon id="Fill-59" points="32.4286875 45.2995 22.4286875 45.2995 22.4286875 55.2995 32.4286875 55.2995"></polygon>
                <polygon id="Fill-60" points="43.3656875 45.2995 33.3656875 45.2995 33.3656875 55.2995 43.3656875 55.2995"></polygon>
                <polygon id="Fill-61" points="43.3656875 56.5435 33.3656875 56.5435 33.3656875 66.5435 43.3656875 66.5435"></polygon>
                <polygon id="Fill-62" points="43.3976875 67.5435 33.3976875 67.5435 33.3976875 77.5435 43.3976875 77.5435"></polygon>
                <polygon id="Fill-63" points="43.3656875 78.7865 33.3656875 78.7865 33.3656875 88.7865 43.3656875 88.7865"></polygon>
                <polygon id="Fill-64" points="54.3346875 45.2995 44.3346875 45.2995 44.3346875 55.2995 54.3346875 55.2995"></polygon>
                <polygon id="Fill-65" points="153.050687 45.4215 143.050687 45.4215 143.050687 55.4215 153.050687 55.4215"></polygon>
                <polygon id="Fill-66" points="153.050687 56.4215 143.050687 56.4215 143.050687 66.4215 153.050687 66.4215"></polygon>
                <polygon id="Fill-67" points="153.050687 67.5435 143.050687 67.5435 143.050687 77.5435 153.050687 77.5435"></polygon>
                <polygon id="Fill-68" points="153.050687 78.7865 143.050687 78.7865 143.050687 88.7865 153.050687 88.7865"></polygon>
                <polygon id="Fill-69" points="142.082688 45.4215 132.082688 45.4215 132.082688 55.4215 142.082688 55.4215"></polygon>
                <polygon id="Fill-70" points="175.019688 45.2995 165.019688 45.2995 165.019688 55.2995 175.019688 55.2995"></polygon>
                <polygon id="Fill-71" points="21.4606875 45.4215 11.4606875 45.4215 11.4606875 55.4215 21.4606875 55.4215"></polygon>
            </g>
        </g>
    </g>
</svg>