<?xml version="1.0" encoding="UTF-8" standalone="no"?>
<svg width="600px" height="400px" viewBox="0 0 600 400" version="1.1" xmlns="http://www.w3.org/2000/svg" xmlns:xlink="http://www.w3.org/1999/xlink">
    <!-- Generator: Sketch 3.8.3 (29802) - http://www.bohemiancoding.com/sketch -->
    <title>Artboard 3</title>
    <desc>Created with Sketch.</desc>
    <defs>
        <path d="M6.43179361,10.2933216 C8.99310278,9.60702082 10.5130974,6.97431288 9.82679665,4.41300382 C9.140496,1.85169466 6.50778805,0.331700018 3.94647889,1.01800067 C1.38516984,1.70430144 -0.134824911,4.33700938 0.551475852,6.89831854 C1.23777661,9.4596276 3.87048456,10.9796222 6.43179361,10.2933216 L6.43179361,10.2933216 L6.43179361,10.2933216 Z" id="path-1"></path>
    </defs>
    <g id="Page-1" stroke="none" stroke-width="1" fill="none" fill-rule="evenodd">
        <g id="Artboard-3">
            <g id="gameOfLife" transform="translate(66.000000, 0.000000)">
                <g id="Page-1" transform="translate(0.000000, 0.000000)">
                    <g id="gameOfLife">
                        <g id="stars" transform="translate(110.962439, 4.267786)">
                            <polygon id="Star1" fill="#D6E1E8" points="34.801336 27.2977752 38.3143517 17.9797866 47.9446102 14.2281057 38.8318849 9.42022689 34.6077786 0.624112056 30.1238706 9.93898808 21.270947 14.5331373 31.327653 18.4985478"></polygon>
                            <polygon id="Star2" fill="#E7ECF0" points="9.82998629 59.4160665 12.3590974 53.0789896 19.2928282 50.5282101 12.7312136 47.2587306 9.69030942 41.2779756 6.46174771 47.6120242 0.0877906852 50.7361486 7.32859734 53.4322831"></polygon>
                        </g>
                        <g id="tree1" transform="translate(0.533473, 178.180070)" fill="#84AEA5">
                            <rect id="trunk" x="37.5199436" y="46.7752265" width="5.33473263" height="32.0083958"></rect>
                            <ellipse id="foliage" cx="41.6838528" cy="39.5177914" rx="13.8703048" ry="13.8703048"></ellipse>
                            <ellipse id="foliage" cx="40.6078163" cy="19.6299705" rx="11.2029385" ry="11.2029385"></ellipse>
                            <ellipse id="foliage" cx="53.7685857" cy="32.2700173" rx="11.7364118" ry="11.7364118"></ellipse>
                            <ellipse id="foliage" cx="28.9056793" cy="33.0982317" rx="11.7364118" ry="11.7364118"></ellipse>
                            <ellipse id="foliage" cx="19.2779757" cy="20.5336055" rx="7.46862568" ry="7.46862568"></ellipse>
                            <ellipse id="foliage" cx="6.02384367" cy="6.63356778" rx="5.86820589" ry="5.86820589"></ellipse>
                        </g>
                        <g id="tree2" transform="translate(426.130300, 189.916482)" fill="#84AEA5">
                            <polygon id="trunk" points="16.5178926 73.7867693 22.9195717 73.7867693 22.9195717 37.5105874 16.5178926 37.5105874"></polygon>
                            <path d="M25.6306829,28.5951822 C25.6306829,35.9607697 19.8982968,41.9320138 12.8273245,41.9320138 C5.75635231,41.9320138 0.0239662346,35.9607697 0.0239662346,28.5951822 C0.0239662346,21.2295946 5.75635231,15.2583506 12.8273245,15.2583506 C19.8982968,15.2583506 25.6306829,21.2295946 25.6306829,28.5951822 L25.6306829,28.5951822 Z" id="foliage"></path>
                            <path d="M27.7891157,15.2583506 C34.8600879,15.2583506 40.592474,21.2295946 40.592474,28.5951822 C40.592474,35.9607697 34.8600879,41.9320138 27.7891157,41.9320138 C20.7181434,41.9320138 14.9857574,35.9607697 14.9857574,28.5951822 C14.9857574,21.2295946 20.7181434,15.2583506 27.7891157,15.2583506" id="foliage"></path>
                            <path d="M20.6128333,0.805492966 C27.9786303,0.805492966 33.9496649,7.25454908 33.9496649,15.2092711 C33.9496649,23.163993 27.9786303,29.6130492 20.6128333,29.6130492 C13.2470363,29.6130492 7.27600178,23.163993 7.27600178,15.2092711 C7.27600178,7.25454908 13.2470363,0.805492966 20.6128333,0.805492966" id="foliage"></path>
                        </g>
                        <g id="sqbuilding" transform="translate(90.156981, 109.699886)">
                            <path d="M0.228419155,9.65524057 C0.228419155,4.35096171 4.52819701,0.050994103 9.82980588,0.050994103 L54.6445946,0.050994103 C59.947294,0.050994103 64.2459813,4.34219904 64.2459813,9.65524057 L64.2459813,144.088775 L0.228419155,144.088775 L0.228419155,9.65524057 L0.228419155,9.65524057 Z" id="structure" fill="#D3BDB0"></path>
                            <g id="sqwGroup" transform="translate(9.487681, 9.798125)" fill="#FFFFFF">
                                <rect id="w" x="16.508696" y="112.559785" width="12.8033583" height="12.8033583"></rect>
                                <rect id="w" x="0.519132633" y="112.47392" width="12.8033583" height="12.8033583"></rect>
                                <rect id="w" x="32.4982594" y="96.3779204" width="12.8033583" height="12.8033583"></rect>
                                <rect id="w" x="16.508696" y="96.7634158" width="12.8033583" height="12.8033583"></rect>
                                <rect id="w" x="0.519132633" y="96.6775514" width="12.8033583" height="12.8033583"></rect>
                                <rect id="w" x="32.4982594" y="80.4089287" width="12.8033583" height="12.8033583"></rect>
                                <rect id="w" x="16.508696" y="80.7953186" width="12.8033583" height="12.8033583"></rect>
                                <rect id="w" x="0.519132633" y="80.7094542" width="12.8033583" height="12.8033583"></rect>
                                <rect id="w" x="32.4982594" y="64.2270648" width="12.8033583" height="12.8033583"></rect>
                                <rect id="w" x="16.508696" y="64.6125603" width="12.8033583" height="12.8033583"></rect>
                                <rect id="w" x="0.519132633" y="64.5266959" width="12.8033583" height="12.8033583"></rect>
                                <rect id="w" x="32.4982594" y="48.4306965" width="12.8033583" height="12.8033583"></rect>
                                <rect id="w" x="16.508696" y="48.8161919" width="12.8033583" height="12.8033583"></rect>
                                <rect id="w" x="0.519132633" y="48.7303275" width="12.8033583" height="12.8033583"></rect>
                                <rect id="w" x="32.4982594" y="32.4625992" width="12.8033583" height="12.8033583"></rect>
                                <rect id="w" x="16.508696" y="32.8480946" width="12.8033583" height="12.8033583"></rect>
                                <rect id="w" x="0.519132633" y="32.7622302" width="12.8033583" height="12.8033583"></rect>
                                <rect id="w" x="32.3363691" y="16.2807354" width="12.8033583" height="12.8033583"></rect>
                                <rect id="w" x="16.3463586" y="16.6662307" width="12.8033583" height="12.8033583"></rect>
                                <rect id="w" x="0.356348025" y="16.5803664" width="12.8033583" height="12.8033583"></rect>
                                <rect id="w" x="16.2949293" y="0.733015931" width="12.8033583" height="12.8033583"></rect>
                                <rect id="w" x="32.4982594" y="0.733015931" width="12.8033583" height="12.8033583"></rect>
                                <rect id="w" x="32.4982594" y="112.517747" width="12.8033583" height="12.8033583"></rect>
                                <rect id="w" x="0.0915994179" y="0.733015931" width="12.8033583" height="12.8033583"></rect>
                            </g>
                        </g>
                        <g id="hancock" transform="translate(337.032020, 40.543968)">
                            <polygon id="structure" fill="#D3BDB0" points="11.1685296 13.4865076 32.5074601 13.4865076 53.8463906 13.4865076 64.5158559 213.005507 53.8463906 213.005507 32.5074601 213.005507 11.1685296 213.005507 0.49906431 213.005507"></polygon>
                            <polygon id="detail" fill="#FFFFFF" points="4.08166206 142.580182 60.629828 142.580182 60.629828 148.981861 4.08166206 148.981861"></polygon>
                            <rect id="detail" fill="#FFFFFF" x="7.41777875" y="75.5310511" width="50.1464867" height="5.33473263"></rect>
                            <g id="xGroup" transform="translate(16.082393, 164.309765)" fill="#FFFFFF">
                                <path d="M2.42422215,0.100696345 C4.19132681,0.100696345 6.45767137,1.26027129 7.49376397,2.70113675 L31.1156942,35.5515047 C32.1484201,36.9876882 31.5567857,38.1519447 29.7896086,38.1519442 L29.5967163,38.1519442 C27.8316134,38.1519437 25.5728343,36.9819155 24.5501159,35.536527 L1.32726295,2.71611265 C0.305205309,1.27165811 0.902402433,0.100696345 2.67628992,0.100696345 L2.42422215,0.100696345 L2.42422215,0.100696345 Z" id="detail"></path>
                                <path d="M31.3172343,0.193801651 C29.5486749,0.193801651 27.2340223,1.32981343 26.1493784,2.72849173 L0.644875268,35.6172532 C-0.440693307,37.0171239 0.103575823,38.1519434 1.87993678,38.1519437 L2.19464801,38.1519438 C3.96232223,38.151944 6.26581789,37.0159324 7.33760877,35.6172541 L32.5398833,2.72849179 C33.6125879,1.32862108 33.05326,0.193801651 31.2799267,0.193801651 L31.3172343,0.193801651 L31.3172343,0.193801651 L31.3172343,0.193801651 Z" id="detail"></path>
                            </g>
                            <g id="xGroup" transform="translate(16.082393, 93.999959)" fill="#FFFFFF">
                                <path d="M2.42422215,0.100696345 C4.19132681,0.100696345 6.45767137,1.26027129 7.49376397,2.70113675 L31.1156942,35.5515047 C32.1484201,36.9876882 31.5567857,38.1519447 29.7896086,38.1519442 L29.5967163,38.1519442 C27.8316134,38.1519437 25.5728343,36.9819155 24.5501159,35.536527 L1.32726295,2.71611265 C0.305205309,1.27165811 0.902402433,0.100696345 2.67628992,0.100696345 L2.42422215,0.100696345 L2.42422215,0.100696345 Z" id="Path-7"></path>
                                <path d="M31.3172343,0.193801651 C29.5486749,0.193801651 27.2340223,1.32981343 26.1493784,2.72849173 L0.644875268,35.6172532 C-0.440693307,37.0171239 0.103575823,38.1519434 1.87993678,38.1519437 L2.19464801,38.1519438 C3.96232223,38.151944 6.26581789,37.0159324 7.33760877,35.6172541 L32.5398833,2.72849179 C33.6125879,1.32862108 33.05326,0.193801651 31.2799267,0.193801651 L31.3172343,0.193801651 L31.3172343,0.193801651 L31.3172343,0.193801651 Z" id="Path-7"></path>
                            </g>
                            <g id="xGroup" transform="translate(16.082393, 26.350115)" fill="#FFFFFF">
                                <path d="M2.42422215,0.100696345 C4.19132681,0.100696345 6.45767137,1.26027129 7.49376397,2.70113675 L31.1156942,35.5515047 C32.1484201,36.9876882 31.5567857,38.1519447 29.7896086,38.1519442 L29.5967163,38.1519442 C27.8316134,38.1519437 25.5728343,36.9819155 24.5501159,35.536527 L1.32726295,2.71611265 C0.305205309,1.27165811 0.902402433,0.100696345 2.67628992,0.100696345 L2.42422215,0.100696345 L2.42422215,0.100696345 Z" id="Path-7"></path>
                                <path d="M31.3172343,0.193801651 C29.5486749,0.193801651 27.2340223,1.32981343 26.1493784,2.72849173 L0.644875268,35.6172532 C-0.440693307,37.0171239 0.103575823,38.1519434 1.87993678,38.1519437 L2.19464801,38.1519438 C3.96232223,38.151944 6.26581789,37.0159324 7.33760877,35.6172541 L32.5398833,2.72849179 C33.6125879,1.32862108 33.05326,0.193801651 31.2799267,0.193801651 L31.3172343,0.193801651 L31.3172343,0.193801651 L31.3172343,0.193801651 Z" id="Path-7"></path>
                            </g>
                            <polygon id="detail" fill="#D3BDB0" points="21.9932421 0.170608121 28.3949212 0.170608121 28.3949212 14.040913 21.9932421 14.040913"></polygon>
                            <rect id="detail" fill="#D3BDB0" x="34.8687946" y="0.170608121" width="6.40167916" height="13.8703048"></rect>
                        </g>
                        <g id="willets" transform="translate(250.609352, 0.000000)">
                            <path d="M35.9890169,26.1745248 L0.424132637,26.1745248 L0.424132637,253.434135 L35.9890169,253.434135 L35.9890169,26.1745248 L35.9890169,26.1745248 L35.9890169,26.1745248 Z M50.2149705,66.5329983 L35.9890169,66.5329983 L35.9890169,253.434135 L50.2149705,253.434135 L50.2149705,66.5329983 L50.2149705,66.5329983 L50.2149705,66.5329983 Z M64.4409242,164.775434 L50.2149705,164.775434 L50.2149705,253.434135 L64.4409242,253.434135 L64.4409242,164.775434 L64.4409242,164.775434 L64.4409242,164.775434 Z" id="structure" fill="#84AFA5"></path>
                            <rect id="detail" fill="#84AEA5" x="6.525717" y="0.733715812" width="6.40167916" height="25.6067166"></rect>
                            <rect id="detail" fill="#84AEA5" x="23.0153459" y="0.733715812" width="6.40167916" height="25.6067166"></rect>
                            <polygon id="detail" fill="#FDFDFD" points="9.72655658 96.7685855 38.5341128 96.7685869 38.5341128 106.371104 9.72655658 106.371104"></polygon>
                            <polygon id="detail" fill="#FDFDFD" points="9.32966698 80.7643876 38.1372232 80.764389 38.1372232 90.3669064 9.32966698 90.3669064"></polygon>
                            <rect id="cw" fill="#FFFFFF" x="26.2161855" y="175.999313" width="11.7364118" height="11.7364118" rx="5.5"></rect>
                            <rect id="sqw" fill="#FFFFFF" x="9.96097914" y="175.999313" width="11.7364118" height="11.7364118"></rect>
                            <rect id="cw" fill="#FFFFFF" x="26.2161855" y="113.499936" width="11.7364118" height="11.7364118" rx="5.5"></rect>
                            <rect id="sqw" fill="#FFFFFF" x="9.96097914" y="113.499936" width="11.7364118" height="11.7364118"></rect>
                            <rect id="sqw" fill="#FFFFFF" x="26.2161855" y="131.520931" width="11.7364118" height="11.7364118"></rect>
                            <rect id="cw" fill="#FFFFFF" x="9.96097914" y="131.520931" width="11.7364118" height="11.7364118" rx="5.5"></rect>
                        </g>
                        <g id="vbuilding" transform="translate(168.454469, 60.620346)">
                            <polygon id="structure" fill="#C3E3D8" points="7.33687511 33.1263364 60.6852419 33.1263364 60.6852419 193.168315 7.33687511 193.168315"></polygon>
                            <polygon id="detail" fill="#FFFFFF" points="4.41646651 59.6247588 28.9363202 80.1993589 26.1930402 83.4686728 1.67318648 62.8940726"></polygon>
                            <polygon id="detail" fill="#FFFFFF" points="3.53139962 72.2818051 28.0512533 92.8564053 25.3079733 96.125719 0.788119587 75.5511189"></polygon>
                            <polygon id="detail" fill="#FFFFFF" points="64.6006944 70.5501958 40.0808406 91.124796 42.8241206 94.3941098 67.3439744 73.8195096"></polygon>
                            <polygon id="detail" fill="#FFFFFF" points="65.4857612 83.207242 40.9659075 103.781842 43.7091876 107.051156 68.2290413 86.4765558"></polygon>
                            <polygon id="detail" fill="#FFFFFF" points="4.41646651 104.436513 28.9363202 125.011113 26.1930402 128.280427 1.67318648 107.705827"></polygon>
                            <polygon id="detail" fill="#FFFFFF" points="3.53139962 117.093559 28.0512533 137.66816 25.3079733 140.937473 0.788119587 120.362873"></polygon>
                            <polygon id="detail" fill="#FFFFFF" points="64.6006944 115.36195 40.0808406 135.93655 42.8241206 139.205864 67.3439744 118.631263"></polygon>
                            <polygon id="detail" fill="#FFFFFF" points="65.4857612 128.018996 40.9659075 148.593596 43.7091876 151.86291 68.2290413 131.28831"></polygon>
                            <polygon id="roof" fill="#C2E3D7" points="34.0105382 3.68232517 60.6842014 32.4898814 34.0105382 61.2974376 7.33687511 32.4898814"></polygon>
                            <polygon id="detail" fill="#FFFFFF" points="7.51131719 27.8162413 33.5151762 56.1103748 59.5122928 27.8162413 61.9025345 33.3393257 33.5151762 65.1593697 4.28742206 33.3393257"></polygon>
                            <rect id="detail" fill="#FFFFFF" x="31.8175138" y="0.050994103" width="5.33473263" height="32.0083958"></rect>
                        </g>
                        <g id="lake" transform="translate(37.343128, 272.071364)">
                            <polygon id="beach" fill="#D6E1E8" points="0.199232137 0.443798212 412.040591 0.443798331 412.040591 8.97937042 0.199232137 8.9793703"></polygon>
                            <g id="boat1" transform="translate(104.370077, 22.044524)">
                                <polygon id="hull" fill="#D6E1E8" points="0.773332298 32.8898251 48.785926 32.8898251 45.2205729 47.8270765 10.5419509 47.8270765"></polygon>
                                <g id="comment" transform="translate(33.075342, 31.056287)" font-size="10.9257993" font-family="EnzoOT-Black, Enzo OT" fill="#FFFFFF" font-weight="700">
                                    <text id="//">
                                        <tspan x="0.321771014" y="11.3244313">//</tspan>
                                    </text>
                                </g>
                                <polygon id="mast" fill="#D6E1E8" points="18.5494692 8.5107599 22.8172553 8.5107599 22.8172553 34.1174765 18.5494692 34.1174765"></polygon>
                                <polygon id="sail" fill="#D6E1E8" transform="translate(36.713825, 13.365455) scale(-1, 1) translate(-36.713825, -13.365455) " points="47.3832898 0.0286238008 47.3832906 26.7022864 26.0443601 26.7022869"></polygon>
                                <g id="detail-Clipped" transform="translate(27.740610, 13.985142)">
                                    <mask id="mask-2" fill="white">
                                        <use xlink:href="#path-1"></use>
                                    </mask>
                                    <g id="path-1"></g>
                                    <g id="detail" mask="url(#mask-2)" stroke="#FFFFFF" stroke-width="5.13">
                                        <path d="M6.43179361,10.2933216 C8.99310278,9.60702082 10.5130974,6.97431288 9.82679665,4.41300382 C9.140496,1.85169466 6.50778805,0.331700018 3.94647889,1.01800067 C1.38516984,1.70430144 -0.134824911,4.33700938 0.551475852,6.89831854 C1.23777661,9.4596276 3.87048456,10.9796222 6.43179361,10.2933216 L6.43179361,10.2933216 L6.43179361,10.2933216 Z" id="path-1"></path>
                                    </g>
                                </g>
                                <polygon id="detail" fill="#FFFFFF" points="36.3495393 17.2968217 40.4719041 16.1922374 41.0241961 18.2534198 36.9018313 19.3580041"></polygon>
                                <polygon id="detail" fill="#FFFFFF" points="24.6814929 20.6448135 28.8038577 19.5402291 29.3561498 21.6014116 25.233785 22.7059958"></polygon>
                            </g>
                            <g id="boat2" transform="translate(298.039529, 42.125888) scale(-1, 1) translate(-298.039529, -42.125888) translate(270.539529, 21.625888)" fill="#D6E1E8">
                                <polygon id="hull" points="0.761370535 26.8567971 54.1086969 26.8567971 39.4672447 40.7271019 13.6925097 40.7271019"></polygon>
                                <rect id="mast" x="25.8088119" y="0.432082611" width="4.2677861" height="26.6736631"></rect>
                                <polygon id="sail" points="33.7037598 0.18345526 44.3732251 21.5223849 33.7037598 21.5223858"></polygon>
                                <polygon id="sail" points="21.9084165 0.18345526 0.569486045 21.5223849 21.9084165 21.5223858"></polygon>
                            </g>
                            <g id="duck" transform="translate(188.043211, 68.284578)" fill="#D6E1E8">
                                <rect id="torso" x="0.0312429402" y="8.13874393" width="32.0083958" height="14.9372514" rx="7"></rect>
                                <ellipse id="head" cx="27.8817172" cy="6.00226099" rx="6.93515242" ry="5.33473263"></ellipse>
                                <polygon id="beak" points="33.3311293 8.06632013 33.3311293 3.79853403 41.8667015 5.34966926"></polygon>
                            </g>
                            <g id="ripples" transform="translate(131.572290, 30.941449)" fill="#E6ECF0">
                                <polygon id="detail" points="123.569949 24.1387459 109.699644 24.1387459 109.699644 19.8709598 123.569949 19.8709598"></polygon>
                                <polygon id="detail" points="82.8630704 24.0501893 67.9258191 24.0501893 67.9258191 19.8709598 82.8630704 19.8709598"></polygon>
                                <polygon id="detail" points="64.7249795 24.1387459 49.7877281 24.1387459 49.7877281 19.8709598 64.7249795 19.8709598"></polygon>
                                <polygon id="detail" points="93.7548617 24.0147267 86.2862361 24.0147267 86.2862361 19.7469406 93.7548617 19.7469406"></polygon>
                                <polygon id="detail" points="45.8626132 24.0147267 38.3939876 24.0147267 38.3939876 19.7469406 45.8626132 19.7469406"></polygon>
                                <polygon id="detail" points="105.774529 24.1387459 98.3059032 24.1387459 98.3059032 19.8709598 105.774529 19.8709598"></polygon>
                                <polygon id="detail" points="81.7881319 76.6761219 52.5982978 76.6761218 52.5982978 72.4968923 81.7881319 72.4968924"></polygon>
                                <polygon id="detail" points="93.0278101 76.7646784 85.5591844 76.7646784 85.5591844 72.4968923 93.0278101 72.4968923"></polygon>
                                <polygon id="detail" transform="translate(12.830307, 52.298126) scale(-1, 1) translate(-12.830307, -52.298126) " points="25.6336653 54.4320191 0.0269486599 54.4320191 0.0269486599 50.164233 25.6336653 50.1642331"></polygon>
                                <polygon id="detail" points="38.0111795 54.2991844 30.5425538 54.2991844 30.5425538 50.0313983 38.0111795 50.0313983"></polygon>
                                <polygon id="detail" points="153.731712 52.2981261 128.124995 52.2981261 128.124995 48.03034 153.731712 48.0303401"></polygon>
                                <polygon id="detail" transform="translate(119.481793, 50.031398) scale(-1, 1) translate(-119.481793, -50.031398) " points="123.216105 52.1652913 115.74748 52.1652913 115.74748 47.8975052 123.216105 47.8975052"></polygon>
                                <polygon id="detail" points="53.3757504 4.64329962 45.9071248 4.64329962 45.9071248 0.375513516 53.3757504 0.375513516"></polygon>
                                <polygon id="detail" points="65.0087843 4.64329962 57.5401586 4.64329962 57.5401586 0.375513516 65.0087843 0.375513516"></polygon>
                                <polygon id="detail" points="42.2398808 4.64329962 27.3026294 4.64329962 27.3026294 0.375513516 42.2398808 0.375513516"></polygon>
                                <polygon id="detail" points="132.556501 5.06144628 79.2091745 5.06144628 79.2091745 0.793660179 132.556501 0.793660179"></polygon>
                            </g>
                        </g>
                    </g>
                </g>
            </g>
        </g>
    </g>
</svg>