<?xml version="1.0" encoding="UTF-8" standalone="no"?>
<svg width="600px" height="120px" viewBox="0 0 600 120" version="1.1" xmlns="http://www.w3.org/2000/svg" xmlns:xlink="http://www.w3.org/1999/xlink" style="background: #FFFFFF;">
    <!-- Generator: Sketch 3.8.3 (29802) - http://www.bohemiancoding.com/sketch -->
    <title>Artboard 1</title>
    <desc>Created with Sketch.</desc>
    <defs></defs>
    <g id="Page-1" stroke="none" stroke-width="1" fill="none" fill-rule="evenodd">
        <g id="Artboard-1">
            <g id="Group-2" transform="translate(53.500000, 0.000000)">
                <g id="Group-9" transform="translate(416.503908, 0.000000)">
                    <g id="Group-29" transform="translate(0.099091, 0.000000)" stroke="#979797" stroke-width="0.565714286" fill="#466060">
                        <path d="M73.7382755,36.8479399 C73.746467,36.5367863 73.7505878,36.2246475 73.7505878,35.9115721 C73.7505878,16.0986919 36.8897278,0.0371789131 36.8897278,0.0371789131 C36.8897278,0.0371789131 0.0288678842,16.0986919 0.0288678842,35.9115721 C0.0288678842,37.3011493 0.110045723,38.6722738 0.268037756,40.0206988 C0.0995550522,41.6872539 3.06264119e-09,43.5530095 1.9767115e-09,45.6353162 C-5.08296742e-09,59.1724888 9.03639057e-09,119.91903 9.03639057e-09,119.91903 L74.124079,119.91903 L74.124079,45.635316 C74.124079,42.0665573 73.9709103,39.1776145 73.7382754,36.8479472 L73.7382755,36.8479399 Z" id="Combined-Shape"></path>
                    </g>
                    <g id="Group-27" transform="translate(11.090550, 36.517116)" fill="#FFFFFF">
                        <path d="M26.4742001,9.79250256 C28.689719,9.79250256 30.4857519,7.61261587 30.4857519,4.92358936 C30.4857519,2.23456285 28.689719,0.0546761512 26.4742001,0.0546761512 C24.2586812,0.0546761512 22.4626484,2.23456285 22.4626484,4.92358936 C22.4626484,7.61261587 24.2586812,9.79250256 26.4742001,9.79250256 L26.4742001,9.79250256 Z M26.5327629,22.586727 C28.7482818,22.586727 30.5443147,20.4068404 30.5443147,17.7178138 C30.5443147,15.0287873 28.7482818,12.8489006 26.5327629,12.8489006 C24.317244,12.8489006 22.5212112,15.0287873 22.5212112,17.7178138 C22.5212112,20.4068404 24.317244,22.586727 26.5327629,22.586727 L26.5327629,22.586727 Z" id="Combined-Shape"></path>
                        <path d="M40.999468,20.2535057 C43.2149869,20.2535057 45.0110197,18.073619 45.0110197,15.3845925 C45.0110197,12.6955659 43.2149869,10.5156793 40.999468,10.5156793 C38.7839491,10.5156793 36.9879162,12.6955659 36.9879162,15.3845925 C36.9879162,18.073619 38.7839491,20.2535057 40.999468,20.2535057 L40.999468,20.2535057 Z M41.0580308,33.0477302 C43.2735497,33.0477302 45.0695825,30.8678434 45.0695825,28.178817 C45.0695825,25.4897904 43.2735497,23.3099038 41.0580308,23.3099038 C38.8425119,23.3099038 37.046479,25.4897904 37.046479,28.178817 C37.046479,30.8678434 38.8425119,33.0477302 41.0580308,33.0477302 L41.0580308,33.0477302 Z" id="Combined-Shape" transform="translate(41.028749, 21.781705) rotate(48.000000) translate(-41.028749, -21.781705) "></path>
                        <path d="M11.1270128,20.2535058 C13.3425317,20.2535058 15.1385646,18.0736191 15.1385646,15.3845925 C15.1385646,12.695566 13.3425317,10.5156793 11.1270128,10.5156793 C8.91149393,10.5156793 7.11546102,12.695566 7.11546102,15.3845925 C7.11546102,18.0736191 8.91149393,20.2535058 11.1270128,20.2535058 L11.1270128,20.2535058 Z M11.1855756,33.0477302 C13.4010944,33.0477302 15.1971274,30.8678435 15.1971274,28.178817 C15.1971274,25.4897905 13.4010944,23.3099038 11.1855756,23.3099038 C8.97005673,23.3099038 7.17402382,25.4897905 7.17402382,28.178817 C7.17402382,30.8678435 8.97005673,33.0477302 11.1855756,33.0477302 L11.1855756,33.0477302 Z" id="Combined-Shape" transform="translate(11.156294, 21.781705) rotate(132.000000) translate(-11.156294, -21.781705) "></path>
                        <path d="M39.80097,43.094287 C42.0164889,43.094287 43.8125218,40.9144003 43.8125218,38.2253738 C43.8125218,35.5363474 42.0164889,33.3564606 39.80097,33.3564606 C37.5854512,33.3564606 35.7894182,35.5363474 35.7894182,38.2253738 C35.7894182,40.9144003 37.5854512,43.094287 39.80097,43.094287 L39.80097,43.094287 Z M39.8595328,55.8885115 C42.0750517,55.8885115 43.8710846,53.7086248 43.8710846,51.0195983 C43.8710846,48.3305719 42.0750517,46.1506851 39.8595328,46.1506851 C37.644014,46.1506851 35.847981,48.3305719 35.847981,51.0195983 C35.847981,53.7086248 37.644014,55.8885115 39.8595328,55.8885115 L39.8595328,55.8885115 Z" id="Combined-Shape" transform="translate(39.830251, 44.622486) rotate(-48.000000) translate(-39.830251, -44.622486) "></path>
                        <path d="M13.1474297,43.0942871 C15.3629485,43.0942871 17.1589815,40.9144004 17.1589815,38.2253739 C17.1589815,35.5363475 15.3629485,33.3564607 13.1474297,33.3564607 C10.9319108,33.3564607 9.13587787,35.5363475 9.13587787,38.2253739 C9.13587787,40.9144004 10.9319108,43.0942871 13.1474297,43.0942871 L13.1474297,43.0942871 Z M13.2059925,55.8885116 C15.4215113,55.8885116 17.2175443,53.7086249 17.2175443,51.0195984 C17.2175443,48.3305719 15.4215113,46.1506851 13.2059925,46.1506851 C10.9904736,46.1506851 9.19444067,48.3305719 9.19444067,51.0195984 C9.19444067,53.7086249 10.9904736,55.8885116 13.2059925,55.8885116 L13.2059925,55.8885116 Z" id="Combined-Shape" transform="translate(13.176711, 44.622486) rotate(228.000000) translate(-13.176711, -44.622486) "></path>
                    </g>
                </g>
                <g id="Group-7" transform="translate(164.105376, 0.000000)" fill="#466060">
                    <g id="Group-26">
                        <path d="M42.7420552,9.3964956 C44.8217904,9.3964956 46.507749,7.29394029 46.507749,4.70030687 C46.507749,2.10667345 44.8217904,0.00411813722 42.7420552,0.00411813722 C40.6623198,0.00411813722 38.9763612,2.10667345 38.9763612,4.70030687 C38.9763612,7.29394029 40.6623198,9.3964956 42.7420552,9.3964956 L42.7420552,9.3964956 Z M42.7420552,22.0110755 C44.8217904,22.0110755 46.507749,19.9085202 46.507749,17.3148868 C46.507749,14.7212535 44.8217904,12.6186981 42.7420552,12.6186981 C40.6623198,12.6186981 38.9763612,14.7212535 38.9763612,17.3148868 C38.9763612,19.9085202 40.6623198,22.0110755 42.7420552,22.0110755 L42.7420552,22.0110755 Z M42.7970287,34.3514255 C44.876764,34.3514255 46.5627227,32.2488702 46.5627227,29.6552367 C46.5627227,27.0616034 44.876764,24.959048 42.7970287,24.959048 C40.7172935,24.959048 39.0313348,27.0616034 39.0313348,29.6552367 C39.0313348,32.2488702 40.7172935,34.3514255 42.7970287,34.3514255 L42.7970287,34.3514255 Z" id="Combined-Shape"></path>
                        <path d="M67.8640935,21.2010289 C69.9438288,21.2010289 71.6297873,19.0984735 71.6297873,16.5048401 C71.6297873,13.9112067 69.9438288,11.8086514 67.8640935,11.8086514 C65.7843581,11.8086514 64.0983996,13.9112067 64.0983996,16.5048401 C64.0983996,19.0984735 65.7843581,21.2010289 67.8640935,21.2010289 L67.8640935,21.2010289 Z M67.8640935,33.8156087 C69.9438288,33.8156087 71.6297873,31.7130535 71.6297873,29.11942 C71.6297873,26.5257867 69.9438288,24.4232313 67.8640935,24.4232313 C65.7843581,24.4232313 64.0983996,26.5257867 64.0983996,29.11942 C64.0983996,31.7130535 65.7843581,33.8156087 67.8640935,33.8156087 L67.8640935,33.8156087 Z M67.9190671,46.1559588 C69.9988024,46.1559588 71.684761,44.0534034 71.684761,41.4597699 C71.684761,38.8661366 69.9988024,36.7635812 67.9190671,36.7635812 C65.8393318,36.7635812 64.1533733,38.8661366 64.1533733,41.4597699 C64.1533733,44.0534034 65.8393318,46.1559588 67.9190671,46.1559588 L67.9190671,46.1559588 Z" id="Combined-Shape" transform="translate(67.891580, 28.982305) rotate(48.000000) translate(-67.891580, -28.982305) "></path>
                        <path d="M15.6820235,21.2010292 C17.7617589,21.2010292 19.4477175,19.0984738 19.4477175,16.5048404 C19.4477175,13.911207 17.7617589,11.8086517 15.6820235,11.8086517 C13.6022882,11.8086517 11.9163297,13.911207 11.9163297,16.5048404 C11.9163297,19.0984738 13.6022882,21.2010292 15.6820235,21.2010292 L15.6820235,21.2010292 Z M15.6820235,33.815609 C17.7617589,33.815609 19.4477175,31.7130538 19.4477175,29.1194203 C19.4477175,26.525787 17.7617589,24.4232316 15.6820235,24.4232316 C13.6022882,24.4232316 11.9163297,26.525787 11.9163297,29.1194203 C11.9163297,31.7130538 13.6022882,33.815609 15.6820235,33.815609 L15.6820235,33.815609 Z M15.7369972,46.1559591 C17.8167325,46.1559591 19.502691,44.0534037 19.502691,41.4597703 C19.502691,38.8661369 17.8167325,36.7635815 15.7369972,36.7635815 C13.6572618,36.7635815 11.9713033,38.8661369 11.9713033,41.4597703 C11.9713033,44.0534037 13.6572618,46.1559591 15.7369972,46.1559591 L15.7369972,46.1559591 Z" id="Combined-Shape" transform="translate(15.709510, 28.982305) rotate(132.000000) translate(-15.709510, -28.982305) "></path>
                        <path d="M67.4803966,52.2214326 C69.5601319,52.2214326 71.2460905,50.1188773 71.2460905,47.5252439 C71.2460905,44.9316104 69.5601319,42.8290552 67.4803966,42.8290552 C65.4006613,42.8290552 63.7147026,44.9316104 63.7147026,47.5252439 C63.7147026,50.1188773 65.4006613,52.2214326 67.4803966,52.2214326 L67.4803966,52.2214326 Z M67.4803966,64.8360126 C69.5601319,64.8360126 71.2460905,62.7334572 71.2460905,60.1398239 C71.2460905,57.5461904 69.5601319,55.443635 67.4803966,55.443635 C65.4006613,55.443635 63.7147026,57.5461904 63.7147026,60.1398239 C63.7147026,62.7334572 65.4006613,64.8360126 67.4803966,64.8360126 L67.4803966,64.8360126 Z M67.5353702,77.1763625 C69.6151055,77.1763625 71.3010641,75.0738072 71.3010641,72.4801738 C71.3010641,69.8865404 69.6151055,67.7839851 67.5353702,67.7839851 C65.4556349,67.7839851 63.7696763,69.8865404 63.7696763,72.4801738 C63.7696763,75.0738072 65.4556349,77.1763625 67.5353702,77.1763625 L67.5353702,77.1763625 Z" id="Combined-Shape" transform="translate(67.507883, 60.002709) rotate(-48.000000) translate(-67.507883, -60.002709) "></path>
                        <path d="M15.2983265,52.2214322 C17.3780618,52.2214322 19.0640203,50.118877 19.0640203,47.5252435 C19.0640203,44.9316101 17.3780618,42.8290548 15.2983265,42.8290548 C13.2185911,42.8290548 11.5326326,44.9316101 11.5326326,47.5252435 C11.5326326,50.118877 13.2185911,52.2214322 15.2983265,52.2214322 L15.2983265,52.2214322 Z M15.2983265,64.8360122 C17.3780618,64.8360122 19.0640203,62.7334569 19.0640203,60.1398235 C19.0640203,57.5461901 17.3780618,55.4436347 15.2983265,55.4436347 C13.2185911,55.4436347 11.5326326,57.5461901 11.5326326,60.1398235 C11.5326326,62.7334569 13.2185911,64.8360122 15.2983265,64.8360122 L15.2983265,64.8360122 Z M15.3533001,77.1763622 C17.4330353,77.1763622 19.118994,75.0738068 19.118994,72.4801735 C19.118994,69.88654 17.4330353,67.7839847 15.3533001,67.7839847 C13.2735648,67.7839847 11.5876062,69.88654 11.5876062,72.4801735 C11.5876062,75.0738068 13.2735648,77.1763622 15.3533001,77.1763622 L15.3533001,77.1763622 Z" id="Combined-Shape" transform="translate(15.325813, 60.002708) rotate(228.000000) translate(-15.325813, -60.002708) "></path>
                    </g>
                    <path d="M60.7991533,81.9697458 C62.6032015,79.4125365 63.6887075,77.105412 63.6887075,75.7767908 C63.6887075,71.4611773 41.9061905,51.6618135 41.9061905,51.6618135 C41.9061905,51.6618135 19.3613166,71.2934309 19.3613166,74.9147768 C19.3613166,76.1719999 20.833584,78.9447879 23.1880912,82.0292938 L23.1880912,119.826571 L60.7991533,119.826571 L60.7991533,81.9697458 L60.7991533,81.9697458 Z" id="Combined-Shape"></path>
                </g>
                <g id="Group-8" transform="translate(292.396796, 0.000000)">
                    <path d="M40.4150201,30.0568099 C45.6280893,30.0568099 54.6755775,45.6423462 45.5643821,45.6423462 C37.2888262,45.6423462 34.5452601,45.6423462 33.9325124,45.6423462 C27.2515643,45.6423462 35.201951,30.0568099 40.4150201,30.0568099 Z" id="Triangle-12" fill="#466060"></path>
                    <path d="M32.7357541,48.2942525 L47.7479135,48.2942525 C47.7479135,48.2942525 47.7479132,72.8756693 51.9477561,82.3291986 L28.562313,82.3291986 C32.7357541,72.1987812 32.7357541,48.2942525 32.7357541,48.2942525 Z" id="Rectangle-76" fill="#466060"></path>
                    <polygon id="Rectangle-78" fill="#466060" points="30.1485481 0.0409156651 48.9013302 0.0409156651 44.1184544 26.9041319 40.2202979 25.367015 36.5983257 26.9041319"></polygon>
                    <polygon id="Rectangle-78" fill="#466060" transform="translate(62.481927, 28.906924) rotate(86.000000) translate(-62.481927, -28.906924) " points="55.4084725 12.5147244 69.5553819 17.891191 69.5553819 40.417469 61.3194542 45.299123"></polygon>
                    <polygon id="Rectangle-78" fill="#466060" transform="translate(17.053590, 36.447188) scale(-1, 1) rotate(86.000000) translate(-17.053590, -36.447188) " points="13.9836975 19.916052 25.1152324 25.9972658 16.8848827 49.5378722 8.99194693 52.9783231"></polygon>
                    <polygon id="Rectangle-82" fill="#466060" points="8.73678527 82.1543119 73.6751039 82.1543119 73.5741053 84.8650559 8.73678527 84.8650559"></polygon>
                    <polygon id="Rectangle-82" fill="#466060" points="8.73765228 87.3900323 73.6759709 87.3900323 73.6759709 90.1007764 8.73765228 90.1007764"></polygon>
                    <polygon id="Rectangle-92" fill="#466060" points="18.3306211 93.0599326 64.0830021 93.0599326 52.8239445 101.758011 29.9477541 101.758011"></polygon>
                    <polygon id="Rectangle-92" fill="#466060" points="30.1485481 104.585972 53.0247386 104.585972 53.0247386 119.844991 30.1485481 119.844991"></polygon>
                    <polygon id="Rectangle-116" fill="#FFFFFF" points="36.4702009 11.1616997 43.604082 11.1616997 42.8077212 13.0192 37.4415197 13.0192"></polygon>
                    <polygon id="Rectangle-116" fill="#FFFFFF" points="35.0565047 7.21451157 44.7518618 7.21451157 43.9788997 9.07201186 36.119443 9.07201186"></polygon>
                    <polygon id="Rectangle-116" fill="#FFFFFF" points="33.5175609 3.38341723 46.4623282 3.38341723 45.3315171 5.24091752 34.8522415 5.24091752"></polygon>
                    <polygon id="Rectangle-118" fill="#FFFFFF" transform="translate(70.751246, 28.898146) rotate(17.000000) translate(-70.751246, -28.898146) " points="69.8734101 24.8219871 71.7309104 23.5502232 71.4933126 33.1311827 69.7715825 34.2460681"></polygon>
                    <polygon id="Rectangle-118" fill="#FFFFFF" transform="translate(66.328872, 29.661533) rotate(17.000000) translate(-66.328872, -29.661533) " points="65.4170927 26.1442521 67.274593 25.073293 67.0709378 33.129783 65.3831502 34.2497734"></polygon>
                    <polygon id="Rectangle-118" fill="#FFFFFF" transform="translate(62.091702, 30.347044) rotate(17.000000) translate(-62.091702, -30.347044) " points="61.1799227 27.4996616 63.037423 26.6295073 62.8337678 33.0505068 61.1459802 34.0645812"></polygon>
                    <polygon id="Rectangle-118" fill="#FFFFFF" transform="translate(8.262069, 37.009600) scale(-1, 1) rotate(23.000000) translate(-8.262069, -37.009600) " points="7.31354466 33.6578732 9.1256835 33.1561149 9.21059375 40.2690239 7.5403519 40.8630842"></polygon>
                    <polygon id="Rectangle-118" fill="#FFFFFF" transform="translate(12.089645, 36.655341) scale(-1, 1) rotate(23.000000) translate(-12.089645, -36.655341) " points="11.1638016 33.7973232 12.9759405 33.3791913 13.0154893 39.2531829 11.3452474 39.9314907"></polygon>
                    <polygon id="Rectangle-118" fill="#FFFFFF" transform="translate(15.900433, 36.343507) scale(-1, 1) rotate(23.000000) translate(-15.900433, -36.343507) " points="14.9745896 33.9928662 16.7867285 33.6583607 16.8262773 38.4003 15.1560354 39.0286542"></polygon>
                    <rect id="Rectangle-95" fill="#FFFFFF" x="36.1856631" y="52.8881318" width="3.85147835" height="3.85147835"></rect>
                    <rect id="Rectangle-95" fill="#FFFFFF" x="41.8973725" y="69.1906748" width="3.85147835" height="3.85147835"></rect>
                    <rect id="Rectangle-95" fill="#FFFFFF" x="34.3964293" y="108.364003" width="3.85147835" height="3.85147835"></rect>
                    <rect id="Rectangle-97" fill="#FFFFFF" x="41.1539811" y="113.028138" width="7.13388108" height="2.71074404"></rect>
                </g>
                <g id="Group" transform="translate(0.650320, 0.000000)">
                    <polygon id="Rectangle-159" fill="#466060" points="48.5084936 69.9393368 71.736395 69.9393368 78.8687412 119.039653 40.4339232 119.039653"></polygon>
                    <path d="M59.4994451,42.0634083 C67.7974796,42.0634083 82.1990473,66.8720794 67.696072,66.8720794 C54.5232469,66.8720794 50.1561063,66.8720794 49.1807497,66.8720794 C38.5461818,66.8720794 51.2014106,42.0634083 59.4994451,42.0634083 Z" id="Triangle-12" fill="#466060"></path>
                    <polygon id="Rectangle-78" fill="#466060" points="44.5465625 0.114421358 72.7220249 0.114421358 65.5359051 40.4755548 59.6790482 38.1660852 54.2371495 40.4755548"></polygon>
                    <path d="M76.1619819,20.2949881 L104.337444,20.2949881 C104.337444,20.2949881 97.1513251,60.6561212 97.1513245,60.6561216 C91.8684555,59.9177876 85.8525689,60.6561216 85.8525689,60.6561216 L76.1619819,20.2949881 Z" id="Rectangle-78" fill="#466060" transform="translate(90.249713, 40.475555) rotate(-300.000000) translate(-90.249713, -40.475555) "></path>
                    <path d="M15.7666618,19.9179407 L43.9421241,19.9179407 C43.9421241,19.9179407 36.756005,60.2790738 36.7560044,60.2790742 C28.9035405,58.4254868 25.188173,59.8281428 25.188173,59.8281428 L15.7666618,19.9179407 Z" id="Rectangle-78" fill="#466060" transform="translate(29.854393, 40.098507) scale(-1, 1) rotate(-300.000000) translate(-29.854393, -40.098507) "></path>
                    <path d="M12.7713665,51.9153646 L40.9468288,51.9153646 C40.9468288,51.9153646 32.2918065,95.748703 32.2918059,95.7487033 C27.8793024,90.0047923 22.4619535,92.2764981 22.4619535,92.2764981 L12.7713665,51.9153646 Z" id="Rectangle-78" fill="#466060" transform="translate(26.859098, 73.832034) rotate(-120.000000) translate(-26.859098, -73.832034) "></path>
                    <path d="M78.6590562,51.9153646 L106.834519,51.9153646 C106.834519,51.9153646 98.1794962,95.748703 98.1794956,95.7487033 C91.9939221,91.4963706 88.3659324,92.9795884 88.3659324,92.9795884 L78.6590562,51.9153646 Z" id="Rectangle-78" fill="#466060" transform="translate(92.746787, 73.832034) scale(-1, 1) rotate(-120.000000) translate(-92.746787, -73.832034) "></path>
                    <polygon id="Rectangle-116" fill="#FFFFFF" points="53.2298247 17.4850658 65.3235928 17.4850658 63.9735559 20.6340078 54.8764606 20.6340078"></polygon>
                    <polygon id="Rectangle-116" fill="#FFFFFF" points="50.8332451 10.7935641 67.2693756 10.7935641 65.9590055 13.9425061 52.6351996 13.9425061"></polygon>
                    <polygon id="Rectangle-116" fill="#FFFFFF" points="48.2243385 4.2988712 70.1690571 4.2988712 68.2520407 7.44781319 50.4869662 7.44781319"></polygon>
                    <polygon id="Rectangle-116" fill="#FFFFFF" points="53.2298247 17.4850658 65.3235928 17.4850658 63.9735559 20.6340078 54.8764606 20.6340078"></polygon>
                    <polygon id="Rectangle-116" fill="#FFFFFF" points="50.8332451 10.7935641 67.2693756 10.7935641 65.9590055 13.9425061 52.6351996 13.9425061"></polygon>
                    <polygon id="Rectangle-116" fill="#FFFFFF" points="48.2243385 4.2988712 70.1690571 4.2988712 68.2520407 7.44781319 50.4869662 7.44781319"></polygon>
                    <polygon id="Rectangle-116" fill="#FFFFFF" transform="translate(90.853624, 40.388331) rotate(-300.000000) translate(-90.853624, -40.388331) " points="84.8067396 38.8138598 96.9005077 38.8138598 95.5504708 41.9628018 86.4533755 41.9628018"></polygon>
                    <polygon id="Rectangle-116" fill="#FFFFFF" transform="translate(96.535935, 36.847379) rotate(-300.000000) translate(-96.535935, -36.847379) " points="88.3178697 35.2729081 104.754 35.2729081 103.44363 38.4218501 90.1198242 38.4218501"></polygon>
                    <polygon id="Rectangle-116" fill="#FFFFFF" transform="translate(102.233198, 33.725942) rotate(-300.000000) translate(-102.233198, -33.725942) " points="91.2608384 32.151471 113.205557 32.151471 111.288541 35.300413 93.5234661 35.300413"></polygon>
                    <polygon id="Rectangle-116" fill="#FFFFFF" transform="translate(28.610080, 39.757424) scale(-1, 1) rotate(-300.000000) translate(-28.610080, -39.757424) " points="22.5631964 38.1829534 34.6569645 38.1829534 33.3069276 41.3318954 24.2098323 41.3318954"></polygon>
                    <polygon id="Rectangle-116" fill="#FFFFFF" transform="translate(22.927769, 36.216473) scale(-1, 1) rotate(-300.000000) translate(-22.927769, -36.216473) " points="14.709704 34.6420017 31.1458344 34.6420017 29.8354644 37.7909437 16.5116585 37.7909437"></polygon>
                    <polygon id="Rectangle-116" fill="#FFFFFF" transform="translate(17.230506, 33.095036) scale(-1, 1) rotate(-300.000000) translate(-17.230506, -33.095036) " points="6.25814712 31.5205646 28.2028658 31.5205646 26.2858493 34.6695066 8.52077483 34.6695066"></polygon>
                    <polygon id="Rectangle-116" fill="#FFFFFF" transform="translate(95.502831, 75.056056) scale(-1, -1) rotate(-60.000000) translate(-95.502831, -75.056056) " points="89.4559474 73.4815853 101.549715 73.4815853 100.199679 76.6305273 91.1025833 76.6305273"></polygon>
                    <polygon id="Rectangle-116" fill="#FFFFFF" transform="translate(101.410541, 78.206606) scale(-1, -1) rotate(-60.000000) translate(-101.410541, -78.206606) " points="93.1924759 76.6321354 109.628606 76.6321354 108.318236 79.7810774 94.9944305 79.7810774"></polygon>
                    <polygon id="Rectangle-116" fill="#FFFFFF" transform="translate(106.962416, 81.579862) scale(-1, -1) rotate(-60.000000) translate(-106.962416, -81.579862) " points="95.9900571 80.0053911 117.934776 80.0053911 116.017759 83.1543331 98.2526848 83.1543331"></polygon>
                    <polygon id="Rectangle-116" fill="#FFFFFF" transform="translate(24.985843, 74.484709) rotate(-120.000000) translate(-24.985843, -74.484709) " points="18.9389585 72.9102377 31.0327265 72.9102377 29.6826896 76.0591797 20.5855943 76.0591797"></polygon>
                    <polygon id="Rectangle-116" fill="#FFFFFF" transform="translate(19.303531, 78.025660) rotate(-120.000000) translate(-19.303531, -78.025660) " points="11.085466 76.4511893 27.5215965 76.4511893 26.2112264 79.6001313 12.8874205 79.6001313"></polygon>
                    <polygon id="Rectangle-116" fill="#FFFFFF" transform="translate(13.606268, 81.147097) rotate(-120.000000) translate(-13.606268, -81.147097) " points="2.63390916 79.5726265 24.5786278 79.5726265 22.6616113 82.7215685 4.89653686 82.7215685"></polygon>
                    <rect id="Rectangle-183" fill="#FFFFFF" x="59.8286945" y="76.8230615" width="5.93851415" height="9.68836999"></rect>
                    <rect id="Rectangle-183" fill="#FFFFFF" x="48.7851442" y="92.7362341" width="5.93851415" height="9.68836999"></rect>
                    <rect id="Rectangle-183" fill="#FFFFFF" x="64.8582524" y="102.845208" width="5.93851415" height="9.68836999"></rect>
                </g>
            </g>
        </g>
    </g>
</svg>